<?xml version="1.0" encoding="utf-8"?>
<!-- Generator: Adobe Illustrator 16.0.0, SVG Export Plug-In . SVG Version: 6.00 Build 0)  -->
<!DOCTYPE svg PUBLIC "-//W3C//DTD SVG 1.1//EN" "http://www.w3.org/Graphics/SVG/1.1/DTD/svg11.dtd">
<svg version="1.1" id="Capa_1" xmlns="http://www.w3.org/2000/svg" xmlns:xlink="http://www.w3.org/1999/xlink" x="0px" y="0px"
	 width="935px" height="560px" viewBox="0 0 935 560" enable-background="new 0 0 935 560" xml:space="preserve">
<g>
	<path fill="#FFFFFF" stroke="#000000" stroke-width="11" stroke-linecap="square" stroke-miterlimit="10" d="M189.557,132.018"/>
	<path fill="#FFFFFF" stroke="#000000" stroke-width="11" stroke-linecap="square" stroke-miterlimit="10" d="M153.557,129.278"/>
	<path fill="#677BF4" stroke="#000000" stroke-width="6" stroke-linecap="round" stroke-miterlimit="10" d="M134.845,76.2
		l13.209-5.664l-0.101-14.649l-13.446-2.329l-3.934-6.106l6.583-11.422l-11.763-9.069l-11.799,4.431l-12.672-4.049l-4.055-9.95
		l-16.918,0.086l-4.523,11.143l-10.045,4.013L53.507,26.02L39.389,39.341l9.768,6.384l-4.643,10.855l-13.757,0.102L30.122,71.75
		l12.727,3.601l4.427,9.624l-10.119,7.664l6.8,11.301l15.2-2.055l0,0l27.635,13.354l-27.635-13.354l-23.6,36.983
		c3.186,21.937,27.2,14.382,27.2,14.382l24.035-38.01h14.295l2.47-10.958l12.266-3.767l8.934,5.137l15.6-10.834l-8.337-11.939
		L134.845,76.2z"/>
	<rect x="91.057" y="117.636" fill="none" width="175.7" height="33.9"/>
	<text transform="matrix(1.1711 0 0 1 91.0571 140.5688)" font-family="'ArialRoundedMTBold'" font-size="31.5039">roGestion</text>
	
		<path fill="#677BF4" stroke="#000000" stroke-width="11" stroke-linecap="square" stroke-linejoin="round" stroke-miterlimit="10" d="
		M92.799,45.725"/>
	
		<path fill="#677BF4" stroke="#000000" stroke-width="11" stroke-linecap="square" stroke-linejoin="round" stroke-miterlimit="10" d="
		M91.057,71.75"/>
	
		<path fill="#F7F7F9" stroke="#000000" stroke-width="11" stroke-linecap="square" stroke-linejoin="round" stroke-miterlimit="10" d="
		M201.157,63.874"/>
	
		<path fill="#FFFFFF" stroke="#000000" stroke-width="6" stroke-linecap="round" stroke-linejoin="round" stroke-miterlimit="10" d="
		M85.281,43.986L63.388,86.892c0,0,18.235,12.614,36.648,6.012c18.415-6.602,16.264-25.801,14.965-30.373
		C113.704,57.958,106.745,47.18,85.281,43.986z"/>
</g>
<g>
	<g>
		<g>
			<path d="M341.194,274.973c1.42,0,2.686-0.642,3.518-1.646h5.164l3.288-2.825l-3.288-2.826h-5.164
				c-0.833-1.005-2.099-1.646-3.518-1.646c-2.506,0-4.538,2.002-4.538,4.473C336.656,272.971,338.688,274.973,341.194,274.973z
				 M341.157,268.135h0.71v4.73h-0.894v-3.773l-0.743,0.395l-0.195-0.76L341.157,268.135z"/>
			<path d="M341.194,284.485c1.425,0,2.696-0.647,3.528-1.659h12.834l3.289-2.826l-3.289-2.825h-12.854
				c-0.833-0.998-2.095-1.634-3.508-1.634c-2.506,0-4.538,2.001-4.538,4.473C336.656,282.482,338.688,284.485,341.194,284.485z
				 M339.645,281.849l0.512-0.49c1.151-1.078,1.631-1.627,1.638-2.235c0-0.342-0.134-0.751-0.776-0.751
				c-0.396,0-0.723,0.219-0.88,0.349l-0.115,0.096l-0.293-0.638l0.067-0.055c0.369-0.306,0.848-0.476,1.347-0.476
				c1.03,0,1.491,0.704,1.491,1.4c0,0.887-0.657,1.579-1.584,2.459l-0.16,0.146h1.854v0.724h-3.099V281.849z"/>
			<path d="M368.527,289.501l-3.288-2.827h-20.528c-0.833-1.004-2.099-1.646-3.518-1.646c-2.506,0-4.538,2.003-4.538,4.474
				c0,2.47,2.032,4.472,4.538,4.472c1.42,0,2.686-0.642,3.518-1.647h20.528L368.527,289.501z M340.972,291.903
				c-0.546,0-1.005-0.173-1.232-0.318l-0.076-0.05l0.245-0.682l0.122,0.077c0.143,0.09,0.523,0.262,0.933,0.262
				c0.31,0,0.546-0.08,0.704-0.24c0.13-0.129,0.201-0.313,0.197-0.503c-0.006-0.571-0.544-0.774-1.046-0.774h-0.453v-0.677h0.453
				c0.357,0,0.888-0.169,0.888-0.636c0-0.352-0.245-0.553-0.673-0.553c-0.329,0-0.653,0.146-0.832,0.271l-0.123,0.086l-0.24-0.656
				l0.069-0.051c0.25-0.181,0.73-0.361,1.244-0.361c0.967,0,1.401,0.586,1.401,1.169c0,0.437-0.229,0.8-0.637,1.027
				c0.5,0.2,0.809,0.633,0.809,1.165C342.724,291.179,342.183,291.903,340.972,291.903z"/>
		</g>
	</g>
	<g>
	</g>
	<g>
	</g>
	<g>
	</g>
	<g>
	</g>
	<g>
	</g>
	<g>
	</g>
	<g>
	</g>
	<g>
	</g>
	<g>
	</g>
	<g>
	</g>
	<g>
	</g>
	<g>
	</g>
	<g>
	</g>
	<g>
	</g>
	<g>
	</g>
</g>
<g>
	<g>
		<g>
			<path d="M362.771,404.793v-2.08h-5.05c-0.633-1.597-2.692-2.771-5.128-2.771c-2.437,0-4.496,1.174-5.13,2.771h-5.05v2.08h-5.816
				v25.635h31.99v-25.635H362.771z M345.321,404.793h4.847v-1.039c0-0.956,1.088-1.732,2.424-1.732c1.335,0,2.423,0.776,2.423,1.732
				v1.039h4.847v2.077h-14.542V404.793z M365.679,428.351h-26.175v-21.48h2.909v2.079h20.358v-2.079h2.909V428.351z"/>
		</g>
	</g>
	<g>
		<g>
			<path d="M355.5,417.611h-1.453v-2.079h1.453c0.833,0,1.648,0.1,2.424,0.294l0.97-1.958c-1.088-0.274-2.229-0.416-3.394-0.416
				h-1.453v-1.731h-2.909v1.731h-1.454c-2.405,0-4.362,1.399-4.362,3.12c0,1.719,1.957,3.116,4.362,3.116h1.454v2.078h-1.454
				c-0.833,0-1.648-0.099-2.423-0.295l-0.97,1.96c1.088,0.274,2.23,0.414,3.393,0.414h1.454v1.733h2.909v-1.733h1.453
				c2.405,0,4.364-1.397,4.364-3.117S357.905,417.611,355.5,417.611z M351.138,417.611h-1.454c-0.802,0-1.454-0.466-1.454-1.039
				s0.651-1.04,1.454-1.04h1.454V417.611z M355.5,421.767h-1.453v-2.078h1.453c0.803,0,1.455,0.467,1.455,1.04
				C356.954,421.301,356.302,421.767,355.5,421.767z"/>
		</g>
	</g>
	<g>
	</g>
	<g>
	</g>
	<g>
	</g>
	<g>
	</g>
	<g>
	</g>
	<g>
	</g>
	<g>
	</g>
	<g>
	</g>
	<g>
	</g>
	<g>
	</g>
	<g>
	</g>
	<g>
	</g>
	<g>
	</g>
	<g>
	</g>
	<g>
	</g>
</g>
<g>
	<g>
		<g>
			<path d="M350.865,491.129c5.393,0,7.334-3.652,7.842-6.652c0.626-3.695-1.958-6.477-7.842-6.477
				c-5.882,0-8.468,2.781-7.842,6.477C343.532,487.477,345.471,491.129,350.865,491.129z"/>
			<path d="M362.658,492.648c0.174,0,0.346,0.004,0.518,0.011c-0.257-0.248-0.554-0.466-0.902-0.642
				c-1.036-0.523-2.378-0.694-3.565-1.011c-0.577-0.152-1.094-0.306-1.58-0.479c-1.638,1.215-3.775,1.852-6.264,1.852
				c-2.488,0-4.625-0.636-6.263-1.852c-0.486,0.173-1.002,0.326-1.58,0.479c-1.187,0.316-2.529,0.487-3.565,1.011
				c-1.792,0.904-2.256,2.94-2.62,4.329c-0.299,1.146-0.501,2.314-0.561,3.479c-0.045,0.901,0.613,1.027,1.727,1.3
				c1.397,0.341,2.839,0.594,4.291,0.801c2.803,0.401,5.693,0.709,8.571,0.722c1.395-0.007,2.791-0.082,4.18-0.205
				c-1.028-1.007-1.631-2.228-1.631-3.542C353.414,495.454,357.561,492.648,362.658,492.648z"/>
			<path d="M362.658,493.899c-4.084,0-7.396,2.24-7.396,5.002c0,2.763,3.312,5.002,7.396,5.002c4.085,0,7.396-2.239,7.396-5.002
				C370.053,496.14,366.743,493.899,362.658,493.899z M365.893,499.759h-1.966v1.331c0,0.474-0.567,0.857-1.269,0.857
				c-0.7,0-1.269-0.384-1.269-0.857v-1.331h-1.967c-0.701,0-1.269-0.384-1.269-0.857s0.568-0.858,1.269-0.858h1.967v-1.33
				c0-0.474,0.569-0.858,1.269-0.858c0.702,0,1.269,0.385,1.269,0.858v1.33h1.966c0.701,0,1.269,0.385,1.269,0.858
				S366.594,499.759,365.893,499.759z"/>
		</g>
	</g>
	<g>
	</g>
	<g>
	</g>
	<g>
	</g>
	<g>
	</g>
	<g>
	</g>
	<g>
	</g>
	<g>
	</g>
	<g>
	</g>
	<g>
	</g>
	<g>
	</g>
	<g>
	</g>
	<g>
	</g>
	<g>
	</g>
	<g>
	</g>
	<g>
	</g>
</g>
<g>
	<g>
		<path d="M868.422,269.776c3.146,0,5.708-2.07,5.708-4.614s-2.562-4.613-5.708-4.613c-3.148,0-5.709,2.069-5.709,4.613
			S865.273,269.776,868.422,269.776z"/>
		<path d="M843.427,252.031c0.894,0,1.619-0.588,1.619-1.311v-1.902c0-0.721-0.726-1.308-1.619-1.308
			c-0.893,0-1.617,0.587-1.617,1.308v1.902C841.81,251.443,842.534,252.031,843.427,252.031L843.427,252.031z"/>
		<path d="M829.294,261.547h2.355c0.893,0,1.617-0.584,1.617-1.307c0-0.721-0.725-1.307-1.617-1.307h-2.355
			c-0.894,0-1.618,0.586-1.618,1.307C827.676,260.963,828.4,261.547,829.294,261.547z"/>
		<path d="M853.585,260.24c0,0.723,0.725,1.307,1.619,1.307h2.355c0.894,0,1.618-0.584,1.618-1.307c0-0.721-0.725-1.307-1.618-1.307
			h-2.355C854.31,258.934,853.585,259.52,853.585,260.24z"/>
		<path d="M852.444,254.49c0.413,0,0.827-0.127,1.144-0.383l1.665-1.347c0.633-0.509,0.633-1.337,0-1.849
			c-0.632-0.51-1.655-0.51-2.287,0l-1.666,1.348c-0.632,0.509-0.632,1.338,0,1.848C851.616,254.363,852.031,254.49,852.444,254.49
			L852.444,254.49z"/>
		<path d="M833.266,254.107c0.315,0.256,0.729,0.383,1.144,0.383s0.828-0.127,1.146-0.383c0.63-0.51,0.63-1.339,0-1.848
			l-1.667-1.348c-0.631-0.51-1.656-0.51-2.288,0c-0.63,0.512-0.63,1.34,0,1.849L833.266,254.107z"/>
		<path d="M879.056,283.881H826.69c-0.569,0-1.035,0.377-1.035,0.836v3.096c0,0.463,0.466,0.838,1.035,0.838h52.365
			c0.57,0,1.036-0.375,1.036-0.838v-3.096C880.092,284.258,879.626,283.881,879.056,283.881z"/>
		<path d="M857.297,275.895v5.558c0,0.321,0.325,0.584,0.726,0.584h20.798c0.399,0,0.723-0.263,0.723-0.584v-5.576
			c0-1.756-1.396-3.314-3.461-3.863l-0.01-0.003l-3.019-0.403c-0.26-0.063-0.533,0.046-0.624,0.251l-3.428,7.6
			c-0.196,0.437-0.964,0.437-1.162,0l-3.426-7.6c-0.075-0.165-0.269-0.27-0.474-0.27c-0.049,0-3.17,0.422-3.17,0.422
			C858.688,272.57,857.297,274.13,857.297,275.895L857.297,275.895z"/>
		<path d="M838.151,266.67c0.077,0.451,0.147,0.873,0.211,1.262h3.104l-1.222-5.081c-0.064-0.27,0.022-0.551,0.238-0.765
			c0.219-0.211,0.541-0.334,0.884-0.334h4.12c0.342,0,0.666,0.123,0.883,0.334c0.217,0.214,0.305,0.495,0.238,0.765l-1.222,5.081
			h3.104c0.062-0.389,0.134-0.811,0.213-1.262c2.604-1.413,4.192-3.791,4.192-6.354c0-4.221-4.249-7.654-9.47-7.654
			c-5.223,0-9.468,3.434-9.468,7.654C833.959,262.879,835.545,265.257,838.151,266.67z"/>
		<path d="M848.134,270.462c0.014-0.167,0.041-0.399,0.078-0.685h-9.568c0.035,0.285,0.062,0.518,0.075,0.685
			c0.01,0.13,0.025,0.255,0.045,0.378h9.324C848.108,270.717,848.124,270.592,848.134,270.462L848.134,270.462z"/>
		<polygon points="842.75,263.597 843.427,266.406 844.102,263.597 		"/>
		<path d="M843.427,274.315c1.651,0,3.012-0.608,3.841-1.629h-7.68C840.417,273.707,841.775,274.315,843.427,274.315
			L843.427,274.315z"/>
		<path d="M869.717,271.429c-0.138-0.119-0.338-0.182-0.541-0.182h-1.512c-0.201,0-0.403,0.063-0.539,0.182
			c-0.211,0.187-0.242,0.457-0.093,0.668l0.808,0.984l-0.379,2.579l0.746,1.6c0.073,0.162,0.354,0.162,0.428,0l0.744-1.6
			l-0.377-2.579l0.807-0.984C869.959,271.886,869.928,271.615,869.717,271.429z"/>
	</g>
</g>
<g>
	<path d="M342.52,343.177c1.792,0,3.251-1.199,3.251-2.675s-1.458-2.676-3.251-2.676c-1.792,0-3.251,1.2-3.251,2.676
		S340.728,343.177,342.52,343.177z M342.52,339.609c0.598,0,1.083,0.4,1.083,0.893s-0.485,0.892-1.083,0.892
		c-0.597,0-1.083-0.399-1.083-0.892S341.922,339.609,342.52,339.609z M351.9,337.826l2.861,3.622l-2.918,3.512h8.609v8.783h-4.334
		v1.74h-4.497v1.693h-2.329v-4.728l-3.685-1.338v-3.169l1.856,1.387h4.32v-1.782h-3.481l-3.539-2.644
		c-0.595-0.54-1.453-0.879-2.407-0.879h-2.492v0.004c-1.018,0.047-1.95,0.483-2.52,1.188l-2.464,3.04v3.793h2.167v-3.251
		l1.733-2.141v9.058l-3.083,4.018l1.832,0.952l3.418-4.453v-10.424h1.408c0.263,0,0.503,0.077,0.691,0.205l-0.011,0.01l0.172,0.128
		c0.145,0.151,0.232,0.342,0.232,0.549v5.575l3.684,1.338v5.26h-3.956v1.782h6.122v-1.694h4.497v-1.694h4.497v-1.738h4.333v-17.701
		H351.9z M355.951,343.177l1.416-1.704l-1.472-1.863h4.558v3.567H355.951z"/>
</g>
<g>
	<g>
		<path d="M425.454,146.541c-5.592,0-10.139,3.746-10.139,8.351c0,4.604,4.547,8.35,10.139,8.35c5.591,0,10.139-3.746,10.139-8.35
			C435.593,150.287,431.045,146.541,425.454,146.541z M431.726,156.15h-4.742v3.905h-3.059v-3.905h-4.742v-2.52h4.742v-3.904h3.059
			v3.904h4.742V156.15z"/>
		<polygon points="416.786,127.551 416.786,133.429 423.925,133.429 		"/>
		<path d="M399.96,155.474v-2.52h12.506c0.263-1.2,0.766-2.33,1.467-3.358H399.96v-2.521h16.332c2.375-1.89,5.606-3.053,9.162-3.053
			v-8.073h-11.728v-9.657h-18.865v34.85h19.802c-1.389-1.621-2.254-3.566-2.389-5.668H399.96z M399.96,141.197h20.396v2.52H399.96
			V141.197z"/>
	</g>
	<g>
	</g>
	<g>
	</g>
	<g>
	</g>
	<g>
	</g>
	<g>
	</g>
	<g>
	</g>
	<g>
	</g>
	<g>
	</g>
	<g>
	</g>
	<g>
	</g>
	<g>
	</g>
	<g>
	</g>
	<g>
	</g>
	<g>
	</g>
	<g>
	</g>
</g>
<rect x="700.214" y="10.401" fill="none" width="224.786" height="33.585"/>
<text transform="matrix(1 0 0 1 700.2139 26.417)" font-family="'ArialRoundedMTBold'" font-size="22">Bienvenido User</text>
<path d="M0,182"/>
<line fill="none" x1="8" y1="182" x2="289" y2="182"/>
<line fill="none" x1="30" y1="182" x2="289" y2="182"/>
<line fill="none" x1="520" y1="289" x2="521" y2="284.324"/>
<line fill="none" stroke="#000000" stroke-miterlimit="10" x1="15" y1="183.5" x2="289" y2="183.5"/>
<line fill="none" stroke="#000000" stroke-miterlimit="10" x1="288.5" y1="184" x2="288.5" y2="542"/>
<rect x="22" y="199" fill="none" width="254" height="21.15"/>
<text transform="matrix(1 0 0 1 22 217.1997)" font-family="'ArialRoundedMTBold'" font-size="25">Tus proyectos</text>
<rect x="35.351" y="268.081" fill="none" width="139.557" height="23.839"/>
<text transform="matrix(1 0 0 1 35.3506 284.0957)" font-family="'ArialRoundedMTBold'" font-size="22">Proyecto 1</text>
<rect x="35.351" y="445.854" fill="none" width="139.557" height="23.839"/>
<text transform="matrix(1 0 0 1 35.3506 461.8691)" font-family="'ArialRoundedMTBold'" font-size="22">Proyecto 1</text>
<rect x="35.351" y="301.944" fill="none" width="139.557" height="23.84"/>
<text transform="matrix(1 0 0 1 35.3506 317.9609)" font-family="'ArialRoundedMTBold'" font-size="22">Proyecto 1</text>
<rect x="35.351" y="410.096" fill="none" width="139.557" height="23.839"/>
<text transform="matrix(1 0 0 1 35.3506 426.1113)" font-family="'ArialRoundedMTBold'" font-size="22">Proyecto 1</text>
<rect x="35.351" y="376.104" fill="none" width="139.557" height="23.839"/>
<text transform="matrix(1 0 0 1 35.3506 392.1191)" font-family="'ArialRoundedMTBold'" font-size="22">Proyecto 1</text>
<rect x="35.351" y="339.161" fill="none" width="139.557" height="23.839"/>
<text transform="matrix(1 0 0 1 35.3506 355.1768)" font-family="'ArialRoundedMTBold'" font-size="22">Proyecto 1</text>
<text transform="matrix(1 0 0 1 490.5 151.5361)" font-family="'ArialRoundedMTBold'" font-size="25">Agrega un nuevo proyecto</text>
<line fill="none" stroke="#000000" stroke-miterlimit="10" x1="321.146" y1="184" x2="901" y2="183"/>
<line fill="none" stroke="#000000" stroke-miterlimit="10" x1="321.5" y1="188" x2="321.5" y2="486"/>
<line fill="none" stroke="#000000" stroke-miterlimit="10" x1="910.5" y1="182" x2="910.5" y2="481"/>
<text transform="matrix(1 0 0 1 326.2876 224.5112)" font-family="'ArialRoundedMTBold'" font-size="40">Proyecto 1</text>
<text transform="matrix(1 0 0 1 616 220.1499)" font-family="'ArialRoundedMTBold'" font-size="18">7 miembros / iniciado 12/1/19</text>
<line fill="none" stroke="#000000" stroke-miterlimit="10" x1="321" y1="248.5" x2="499" y2="248.5"/>
<line fill="none" stroke="#000000" stroke-miterlimit="10" x1="520.5" y1="249" x2="520.5" y2="478"/>
<text transform="matrix(1 0 0 1 399.9307 286.6621)" font-family="'ArialRoundedMTBold'" font-size="18">Progreso</text>
<text transform="matrix(1 0 0 1 395 360.6846)" font-family="'ArialRoundedMTBold'" font-size="18">Objetivos</text>
<text transform="matrix(1 0 0 1 399.9307 430.4277)" font-family="'ArialRoundedMTBold'" font-size="18">Inversion</text>
<text transform="matrix(1 0 0 1 395 502.6484)" font-family="'ArialRoundedMTBold'" font-size="18">Participantes</text>
<line fill="none" stroke="#000000" stroke-miterlimit="10" x1="536" y1="309.928" x2="535" y2="490"/>
<line fill="none" stroke="#000000" stroke-miterlimit="10" x1="538" y1="308.5" x2="901" y2="308.5"/>
<line fill="none" stroke="#000000" stroke-miterlimit="10" x1="900.5" y1="307" x2="900.5" y2="493"/>
<rect x="554" y="251.5" fill="none" width="231" height="38"/>
<text transform="matrix(1 0 0 1 554 264.604)"><tspan x="0" y="0" font-family="'ArialRoundedMTBold'" font-size="18">Te puede interresar este </tspan><tspan x="0" y="21.601" font-family="'ArialRoundedMTBold'" font-size="18">proyecto similar al tuyo</tspan></text>
</svg>
