<svg height="682pt" viewBox="-21 -21 682 682.66669" width="682pt" xmlns="http://www.w3.org/2000/svg"><path d="m176.265625 149.800781c41.300781 0 74.902344-33.597656 74.902344-74.898437 0-41.304688-33.601563-74.902344-74.902344-74.902344-41.296875 0-74.902344 33.597656-74.902344 74.902344 0 41.300781 33.605469 74.898437 74.902344 74.898437zm0-99.871093c13.769531 0 24.964844 11.203124 24.964844 24.972656 0 13.765625-11.195313 24.964844-24.964844 24.964844-13.765625 0-24.964844-11.199219-24.964844-24.964844 0-13.769532 11.199219-24.972656 24.964844-24.972656zm216.132813-49.929688 65.949218 101.398438-67.242187 98.335937h198.363281v245.925781h-99.867188v48.683594h-103.613281v47.4375h-53.675781v-132.371094l-84.890625-37.449218v-88.734376l42.789063 38.84375h99.523437v-49.929687h-80.242187l-81.507813-74.007813c-13.714844-15.109374-33.5-24.613281-55.464844-24.613281h-57.421875v.121094c-23.460937 1.324219-44.933594 13.53125-58.070312 33.234375l-56.777344 85.164062v106.183594h49.933594v-91.058594l39.949218-59.921874v253.609374l-71.042968 112.484376 42.214844 26.664062 78.761718-124.703125v-291.84375h32.453125c6.042969 0 11.589844 2.15625 15.914063 5.742187l-.238282.257813 3.960938 3.59375c3.328125 4.242187 5.335938 9.574219 5.335938 15.371094v156.089843l84.886718 37.449219v147.261719h-91.132812v49.929688h141.066406v-47.433594h103.613281v-47.4375h103.613281v-48.6875h99.863282v-495.589844zm93.335937 149.800781 32.625-47.714843-33.917969-52.15625h105.027344v99.871093zm0 0"/></svg>